<svg id="svg" version="1.1" viewBox="0 0 300 300" width="300" height="300" xmlns="http://www.w3.org/2000/svg"><svg xmlns="http://www.w3.org/2000/svg"><defs><clipPath id="clip-1"><rect x="0" y="0" transform="scale(0.14648,0.14648)" width="2048" height="2048" fill="none"/></clipPath><linearGradient x1="103.50337" y1="115.79209" x2="161.52393" y2="66.51343" gradientUnits="userSpaceOnUse" id="color-1"><stop offset="0" stop-color="#003874"/><stop offset="1" stop-color="#0063ba"/></linearGradient></defs><g clip-path="url(#clip-1)" fill="none" fill-rule="nonzero" stroke="none" stroke-width="1" stroke-linecap="butt" stroke-linejoin="miter" stroke-miterlimit="10" stroke-dasharray="" stroke-dashoffset="0" font-family="none" font-weight="none" font-size="none" text-anchor="none" style="mix-blend-mode: normal"><path d="M0,0h300v300h-300z" fill="#ffffff"/><path d="M128.12388,101.84399c2.77485,-0.20244 6.44355,-0.8584 9.26909,-1.27778l13.92832,-2.03599c4.48389,-0.68657 11.63525,-2.63687 15.36035,0.50112c2.8125,2.36909 2.28516,4.74448 3.10693,7.6689c-6.22412,2.15977 -11.33643,6.70005 -14.21631,12.62446c-3.03955,6.16333 -3.03662,12.37031 -1.05469,18.80142c0.47314,0.95449 0.77637,2.07466 1.21436,3.09258c1.89404,4.58555 7.19824,9.55474 11.61182,11.67876c-2.60303,0.22559 -5.63965,0.7251 -8.25146,1.08984c-4.71387,0.64453 -9.42334,1.31982 -14.12959,2.02441c-3.64541,0.54199 -7.15107,0.91406 -10.74229,1.41797c-5.87578,0.87598 -11.7583,1.70801 -17.64683,2.49316c-2.99619,0.39111 -5.9896,0.8042 -8.97993,1.23779c-2.59805,0.375 -5.44365,0.92578 -8.05547,0.83203c-6.82837,-0.24902 -7.09438,-5.08301 -7.88569,-10.02246c-0.51182,-3.12744 -0.99258,-6.25957 -1.44258,-9.39609l-4.15825,-26.73164c-0.34395,-2.11025 -0.05771,-4.59492 1.21069,-6.3479l0.11938,0.23467c1.52886,-0.89326 2.09253,-1.79956 4.13027,-2.19009c3.73506,-0.71572 7.49985,-1.17788 11.23403,-1.90312c1.37871,-0.26763 2.76182,-0.24375 4.13203,-0.70737c0.24492,-0.20874 0.6022,-0.50889 0.9356,-0.56001c6.85093,-1.05088 13.67109,-2.11011 20.48892,-3.36885c-1.61528,0.9728 -3.35479,0.60454 -5.09971,1.08501c-0.19146,0.05259 -2.59526,0.58813 -2.579,0.57891c0.94175,0.09375 6.08262,-0.8127 7.25859,-0.97134z" fill="#002756"/><path d="M154.51758,138.12612c0.47314,0.95449 0.77637,2.07466 1.21436,3.09258c-1.08984,0.00879 -4.69922,1.09087 -5.28662,-0.02153c-1.65967,-3.14443 2.81104,-2.30654 4.07227,-3.07104z" fill="#e1e1e0"/><path d="M128.30259,100.9998c-1.61528,0.9728 -3.35479,0.60454 -5.09971,1.08501c-0.19146,0.05259 -2.59526,0.58813 -2.579,0.57891c0.94175,0.09375 6.08262,-0.8127 7.25859,-0.97134l0.24141,0.15161c-0.56909,0.21094 -7.00254,1.07197 -7.97695,1.21406l-8.46035,1.2397c-1.21787,0.17798 -3.62695,0.58418 -4.8085,0.63091c0.24492,-0.20874 0.6022,-0.50889 0.9356,-0.56001c6.85093,-1.05088 13.67109,-2.11011 20.48892,-3.36885z" fill="#e1e1e0"/><path d="M103.26021,122.18511c1.06011,-0.49893 2.10425,-0.58931 3.23789,-0.79482c2.79727,-0.50728 5.41538,-0.6123 5.0855,3.10913l0.05244,0.30645c0.36665,0.97661 0.61055,3.23408 0.7626,4.3582l0.05903,0.29502c0.47109,2.2478 0.8688,3.78647 -1.98779,4.15796c-0.97764,0.12715 -3.56514,0.65903 -4.42632,0.45278c-0.1689,-0.41279 -0.23496,-0.62051 -0.35771,-1.03828l-0.20215,-0.03809c0.01729,0.51738 0.11396,0.91172 -0.25137,1.26211c-1.11724,0.26104 -5.28384,0.85547 -6.37998,0.34146c-0.69023,-0.32358 -0.89941,-2.52568 -0.98335,-3.30542l0.15117,-0.4166c-0.48032,-0.53188 -0.80317,-3.23188 -0.70986,-3.95698l-0.04482,-0.43477c-0.42759,-0.45791 -0.49805,-1.66816 -0.48413,-2.28354c0.04995,-2.20986 4.86108,-2.2853 6.22969,-2.12021z" fill="#e1e1e0"/><path d="M102.36943,130.68516c0.85781,1.93491 1.14653,1.78491 3.11426,2.3083c0.01729,0.51738 0.11396,0.91172 -0.25137,1.26211c-1.11724,0.26104 -5.28384,0.85547 -6.37998,0.34146c-0.69023,-0.32358 -0.89941,-2.52568 -0.98335,-3.30542z" fill="#e1e1e0"/><path d="M108.11484,130.04531c1.4521,-0.16069 2.9001,-0.3561 4.34282,-0.58623c0.47109,2.2478 0.8688,3.78647 -1.98779,4.15796c-0.97764,0.12715 -3.56514,0.65903 -4.42632,0.45278c-0.1689,-0.41279 -0.23496,-0.62051 -0.35771,-1.03828c1.72559,-1.08384 2.2979,-0.55327 2.429,-2.98623z" fill="#e1e1e0"/><path d="M111.63604,124.80586c0.36665,0.97661 0.61055,3.23408 0.7626,4.3582c-1.46396,0.15703 -2.92251,0.36035 -4.37373,0.60967c-0.15718,-1.42559 -0.36958,-2.90024 -0.55444,-4.327c1.33198,-0.24258 2.78086,-0.39888 4.16558,-0.64087z" fill="#e1e1e0"/><path d="M97.3103,126.91802c1.37432,-0.33794 2.99604,-0.51753 4.41401,-0.71279c0.23452,1.42456 0.44546,2.69312 0.5811,4.13569c-1.42603,0.19717 -2.85454,0.37515 -4.28525,0.53408c-0.48032,-0.53188 -0.80317,-3.23188 -0.70986,-3.95698z" fill="#e1e1e0"/><path d="M97.26548,126.48325c-0.42759,-0.45791 -0.49805,-1.66816 -0.48413,-2.28354c0.04995,-2.20986 4.86108,-2.2853 6.22969,-2.12021c-1.51699,1.40947 -1.53237,1.61162 -1.33506,3.70474c-1.46865,0.24229 -2.93892,0.47534 -4.4105,0.69902z" fill="#e1e1e0"/><path d="M103.01104,122.07949l0.24917,0.10562c-0.554,0.57378 -1.40229,1.26504 -1.28145,2.12593c0.31201,2.22407 0.13433,5.91709 1.7105,7.62437c0.83481,0.90439 2.96792,0.69053 3.6082,-0.3397c0.88169,-1.46982 -0.09009,-4.79839 -0.30776,-6.42949c1.55391,-0.27964 3.03003,-0.46626 4.5939,-0.6668l0.05244,0.30645c-1.38472,0.24199 -2.83359,0.39829 -4.16558,0.64087c0.18486,1.42676 0.39727,2.90142 0.55444,4.327c1.45122,-0.24932 2.90977,-0.45264 4.37373,-0.60967l0.05903,0.29502c-1.44272,0.23013 -2.89072,0.42554 -4.34282,0.58623c-0.1311,2.43296 -0.70342,1.90239 -2.429,2.98623l-0.20215,-0.03809c-1.96772,-0.52339 -2.25645,-0.37339 -3.11426,-2.3083l-4.50044,0.60645l0.15117,-0.4166c1.43071,-0.15894 2.85923,-0.33691 4.28525,-0.53408c-0.13564,-1.44258 -0.34658,-2.71113 -0.5811,-4.13569c-1.41797,0.19526 -3.0397,0.37485 -4.41401,0.71279l-0.04482,-0.43477c1.47158,-0.22368 2.94185,-0.45674 4.4105,-0.69902c-0.19731,-2.09312 -0.18193,-2.29526 1.33506,-3.70474z" fill="#0e1629"/><path d="M110.96909,144.05171c0.43198,-0.09565 0.91362,-0.11865 1.29683,0.1229c0.41851,0.26396 0.7437,0.80728 0.78721,1.29668c0.03018,0.34102 -0.07017,0.68145 -0.30073,0.93794c-0.79409,0.88374 -8.81221,1.71724 -10.62656,1.98384c-0.59238,0.04248 -0.59531,0.05127 -1.17041,-0.06445c-0.40166,-0.25635 -0.69038,-0.65479 -0.80698,-1.11621c-0.10269,-0.39697 -0.02812,-0.91113 0.21504,-1.24482c0.6293,-0.86411 9.05654,-1.70361 10.60562,-1.91587z" fill="#e1e1e0"/><path d="M127.54277,141.85386c0.40518,-0.05962 0.75513,-0.09331 1.14756,0.06665c0.39683,0.16187 0.73037,0.57876 0.83789,0.99097c0.11499,0.44092 0.09434,0.93501 -0.17051,1.31675c-0.61655,0.88872 -8.82261,1.6585 -10.52373,1.89009c-0.41602,0.0605 -0.74414,0.11953 -1.14712,-0.05669c-0.41543,-0.18179 -0.78809,-0.67617 -0.92007,-1.0998c-0.11572,-0.37119 -0.10459,-0.7812 0.13564,-1.10303c0.8644,-1.15811 8.98242,-1.78799 10.64033,-2.00493z" fill="#e1e1e0"/><path d="M144.68525,139.51509c0.30308,-0.06167 0.5562,-0.02725 0.82896,0.13594c0.37441,0.22427 0.63149,0.69551 0.7144,1.11665c0.07837,0.39785 0.01421,0.88286 -0.24976,1.20513c-0.80889,0.9873 -8.85337,1.68486 -10.56636,1.91777c-0.59985,0.00601 -0.67764,0.03149 -1.22402,-0.17373c-0.69155,-0.63091 -0.87803,-2.12695 -0.32373,-2.34536c2.59526,-1.02305 8.15186,-1.49648 10.82051,-1.8564z" fill="#e1e1e0"/><path d="M194.17236,146.79053c-5.8374,4.23047 -10.35645,6.50684 -17.80811,5.87549c-6.52881,-0.55225 -11.4624,-3.48633 -15.62549,-8.4605c-8.95459,-10.69966 -5.32031,-27.43916 6.86426,-33.95435c0.54346,-0.29268 1.35645,-0.56675 1.81201,-0.93809l-0.20068,-0.24668l0.11572,-0.12261c1.46924,0.43945 3.62842,-0.68188 5.13721,-1.04839c5.56787,-1.35293 11.67188,0.19424 16.48682,3.1478c4.87793,2.9915 8.58252,8.28149 9.87451,13.83149c0.4292,1.84966 0.52734,3.67837 0.51709,5.57256c-0.02783,5.22817 -1.3418,8.50591 -4.05029,12.88506c0.70313,0.79746 1.66406,1.65732 2.45361,2.39985c2.74951,-0.2165 3.21387,-0.13799 5.17529,1.83911c0.54199,0.4541 4.16016,3.89063 4.41797,4.34619c1.26709,0.8833 5.60449,4.98633 6.41016,6.18896c2.64111,3.93604 -3.38086,9.31934 -7.33447,5.90771c-2.26172,-1.95117 -4.26562,-3.98437 -6.3999,-6.04541c-1.99512,-1.92627 -4.14404,-3.35742 -5.56641,-5.82422c-0.03955,-0.8335 -0.02197,-1.80322 -0.02637,-2.6499c-0.75439,-0.72656 -1.43701,-1.81934 -2.25293,-2.7041z" fill="#002756"/><path d="M201.23291,146.14907c2.14746,-0.27451 2.10498,1.35483 3.69141,1.42222c0.54199,0.4541 4.16016,3.89063 4.41797,4.34619c0.22119,1.57324 4.45605,4.00049 4.63037,5.27637c-0.38525,-0.27686 -0.68994,-0.5127 -1.05762,-0.81299l0.0791,0.2124c0.20947,0.57715 0.39697,0.91406 0.32813,1.52197c-0.19336,0.31201 -0.1377,0.26807 -0.39551,0.51416c-2.50049,-1.03711 -12.20654,-9.40723 -12.61377,-11.9751c0.21533,-0.36226 0.40576,-0.31743 0.91992,-0.50522z" fill="#0054a4"/><path d="M201.23291,146.14907c2.14746,-0.27451 2.10498,1.35483 3.69141,1.42222c0.54199,0.4541 4.16016,3.89063 4.41797,4.34619c0.22119,1.57324 4.45605,4.00049 4.63037,5.27637c-0.38525,-0.27686 -0.68994,-0.5127 -1.05762,-0.81299l0.0791,0.2124c0.20947,0.57715 0.39697,0.91406 0.32813,1.52197c-0.19336,0.31201 -0.1377,0.26807 -0.39551,0.51416c0.38086,-1.0957 -0.14062,-1.97607 -0.91406,-2.75098c-1.34033,-1.34033 -2.86816,-2.50635 -4.26855,-3.79102c-1.88086,-1.72559 -3.58887,-3.68555 -5.64844,-5.19873c-0.48926,-0.35596 -0.44678,-0.25781 -0.86279,-0.7396z" fill="#00356f"/><path d="M176.7832,112.38647c9.90381,-1.01514 18.74414,6.21899 19.70947,16.12808c0.96387,9.90923 -6.31494,18.7125 -16.229,19.62656c-9.84229,0.90674 -18.56836,-6.30908 -19.52637,-16.14668c-0.95654,-9.83745 6.21387,-18.6 16.0459,-19.60796z" fill="#ffffff"/><path d="M187.08545,122.14087c1.22754,0.10811 2.87988,1.68721 3.22412,2.76782c0.31641,0.99976 -2.64111,3.59766 -3.28271,4.24131l-5.31592,5.3168c-1.66406,1.66494 -3.2666,3.37427 -4.94385,5.03965c-1.83691,1.82534 -3.00439,0.14473 -4.40479,-1.18579c-0.70752,-0.67192 -1.39014,-1.41284 -2.07129,-2.11274c-1.20557,-1.18184 -2.5459,-2.41699 -3.5376,-3.76406c3.1333,-5.69736 5.25146,-1.40947 8.38037,1.41387c2.67188,-2.26875 5.8374,-6.02183 8.51221,-8.49536c1.10889,-1.0251 2.18115,-2.36411 3.43945,-3.22148z" fill="#0054a4"/><path d="M120.28652,56.67305c1.00444,0.08481 2.37129,0.09697 3.28154,0.41206c1.70068,0.58843 2.37905,2.29438 4.28672,2.63892c1.16353,0.21021 2.19756,0.2833 3.37969,0.35259c1.19136,1.37988 1.22432,1.87104 2.86187,2.96118c0.64556,-0.10078 1.2939,-0.18311 1.94414,-0.24683c1.76851,-0.15776 3.7251,-0.1894 4.50483,1.71021c1.34019,2.93027 4.58745,1.41885 6.84727,0.88447c2.58545,-0.61172 1.85449,4.11021 3.37061,4.9998c1.04883,0.61479 3.47461,0.58667 4.52637,0.4062c2.1709,-0.37192 3.53906,-1.67769 5.78613,-2.0395c1.35938,-0.16274 1.54395,-0.4374 2.53418,0.24785c3.10986,1.61133 3.04688,3.38408 2.96631,6.65859c-1.75928,0.61714 -4.53662,1.08384 -6.44678,1.5334c-7.50146,1.76616 -15.12363,3.24609 -22.65938,4.83896l-23.51016,4.98721c-5.2021,1.12104 -10.66479,2.48936 -15.93354,3.20859c-0.15073,-1.26958 -0.13608,-1.57148 -0.03179,-2.81587c-3.35771,-0.68057 -4.78652,-2.66924 -5.50635,-5.89731c6.41792,-0.65317 3.90146,-5.34492 3.25591,-9.35405c-0.32036,-1.98911 0.8124,-1.99453 -0.53174,-4.46748c-0.99976,-0.65684 -2.62324,-0.88975 -2.71421,-2.12842c0.24785,-0.67427 0.82705,-1.0897 1.37549,-1.59346c-0.33296,-0.6249 -0.59048,-1.04224 -0.78765,-1.72852c0.81167,-1.99746 4.1168,-1.54482 5.18306,-2.68521c1.08354,-1.15928 -0.25254,-1.48696 2.43545,-2.20093c3.77285,-1.0021 5.36821,1.4896 8.47837,2.80781c1.38823,0.58843 2.9395,0.67354 4.43115,0.70957c0.44854,-0.2688 1.47495,-1.13013 1.9355,-1.49971c1.12808,-0.20186 1.93652,-0.1897 3.08774,-0.20713c0.84478,-0.8606 1.10815,-1.44272 1.64927,-2.49302z" fill="#e1e1e0"/><path d="M161.07568,68.75215c1.35938,-0.16274 1.54395,-0.4374 2.53418,0.24785c-0.73975,0.01597 -1.96582,0.13901 -2.53418,-0.24785z" fill="#e1e1e0"/><path d="M196.68311,83.79917c0.54932,-0.00981 1.04443,-0.10459 1.45752,0.21797c0.35889,0.56543 0.21826,1.60679 0.19775,2.33057c0.98877,0.69976 1.16895,0.86353 1.9834,1.75034c-0.62988,0.74062 -1.36084,1.11855 -1.96436,1.84907c0.01758,-0.02124 -0.08203,0.93691 -0.09375,1.04121c-0.94775,0.54683 -4.60107,-0.19849 -5.76562,0.04043c-3.67236,0.75308 -9.13037,-3.74517 -10.72412,1.42529c0.40137,0.84346 1.00781,3.35991 1.25244,3.66035c1.45898,1.79663 6.71777,-1.58716 8.72168,-1.1606c-0.10986,0.61084 -0.14209,0.77183 -0.13477,1.38384c1.29346,2.10352 3.0293,1.89946 5.18115,2.2002c1.73584,0.24272 3.55957,0.37559 5.27051,0.73491c0.5127,0.10767 2.01123,1.00781 2.5459,1.31323c1.70947,-0.77139 3.04688,-2.50752 4.82227,-2.42476c0.5332,0.02476 1.55127,1.18594 2.09619,1.4187c1.71094,0.73081 4.9541,1.22651 6.39404,2.33013c1.80029,1.379 2.22803,3.42305 4.27295,5.15317c1.7959,1.52095 1.34033,0.95537 3.54492,1.927c0.81152,0.26221 2.05957,2.38081 2.5459,2.63394c2.46533,1.28057 2.38477,1.20937 3.75293,3.68511c0.72217,0.25415 2.24268,0.49189 2.50488,1.14653c1.01074,2.51484 -2.56201,6.84302 -3.40576,9.08042c-0.19043,0.50757 0.03223,0.97412 0.2666,1.37959l0.22119,0.10122l-0.3501,-0.06401c-0.45996,0.33955 -0.58594,1.36245 -1.2334,1.62012c-1.41357,0.56147 -3.41455,-0.34819 -4.88672,-0.66709c-0.61084,2.4312 -0.6709,3.05991 -1.82812,5.23433c-4.68164,1.28862 -5.50342,-1.46133 -7.90576,-4.69644c-2.8623,-3.85225 -8.4668,0.17637 -11.52393,-2.67627c-0.43506,-0.4062 -1.13818,-4.22505 -1.58057,-4.99028c-3.19482,-8.08301 -11.18408,-14.85264 -19.96582,-15.64849c-1.34033,-6.09126 -2.59131,-12.20171 -3.75293,-18.3293c3.79248,-0.63472 4.39307,-2.02632 8.49609,-2.49653l0.51416,0.24331c5.52246,2.59526 4.40479,0.81606 9.07324,-0.74722z" fill="#e1e1e0"/><path d="M88.31968,95.13281c1.75474,-1.04531 10.84746,-2.5771 13.36084,-3.08599l13.22314,-2.75449l32.0231,-6.79058c6.67969,-1.40596 13.33887,-2.99209 20.0332,-4.32891c7.00342,-1.39893 8.33203,4.74653 9.36621,9.92607c-20.36719,3.99932 -40.54175,8.87227 -60.97471,12.8376l-13.95073,2.76958c-1.45547,0.27495 -4.02012,0.88462 -5.43208,0.98013c-2.05825,0.5228 -8.42402,1.10889 -9.20918,3.24214l-0.17622,0.06489c-0.83892,-2.02251 -1.93052,-7.12837 -1.18242,-9.21841c0.64365,-1.7981 1.28174,-2.7082 2.91885,-3.64204z" fill="url(#color-1)"/><path d="M88.31968,95.13281c0.01406,0.04995 0.03193,0.09902 0.04219,0.15c0.11206,0.55942 -0.19277,1.27808 -0.03486,1.8063c0.93237,3.11733 6.35273,6.33354 6.47739,7.08662l-0.41924,0.44897c0.73594,0.05625 0.80024,-0.23262 1.5835,0.06152c-2.05825,0.5228 -8.42402,1.10889 -9.20918,3.24214l-0.17622,0.06489c-0.83892,-2.02251 -1.93052,-7.12837 -1.18242,-9.21841c0.64365,-1.7981 1.28174,-2.7082 2.91885,-3.64204z" fill="#00356f"/><path d="M248.59863,172.86328c1.13672,-0.02637 2.3584,0.00293 3.50098,0.03223c6.16992,0.15674 13.40039,-0.92578 18.23291,3.79834c5.9751,5.84033 6.03076,15.73242 0.28125,21.71191c-5.59863,5.41406 -14.65869,3.58301 -22.08105,3.92285c-0.23145,-5.70557 0.11719,-12.11865 -0.01904,-17.92822c-0.05273,-2.23828 -0.18018,-9.69141 0.08496,-11.53711z" fill="#df1624"/><path d="M254.8667,178.61865c3.27393,-0.24902 8.22949,-0.41455 10.65674,2.09912c3.50391,3.62695 3.45996,10.43262 -0.04541,14.02002c-2.37451,2.32178 -7.53076,2.13281 -10.63623,1.68604c-0.09082,-1.74902 -0.01758,-3.49951 -0.00439,-5.25146c0.03076,-3.71045 -0.06885,-7.42969 -0.00146,-11.13721c0.00293,-0.19336 0.30615,-0.63281 0.42334,-0.8042c-0.13623,-0.22705 -0.24609,-0.39404 -0.39258,-0.6123z" fill="#ffffff"/><path d="M227.52539,172.9292c3.09375,0.20068 6.38672,-0.18457 9.48193,0.6123c2.27344,0.58594 4.73877,1.87793 5.88135,4.00928c1.31836,2.45947 1.60986,5.54297 0.78369,8.20459c-0.96533,3.10693 -3.07031,4.27441 -5.74512,5.68213c0.83936,1.15723 1.49121,2.3877 2.27344,3.56982c1.53662,2.32178 3.0249,4.63477 4.47363,7.01221c-2.0625,0.02051 -4.51318,0.23145 -6.56982,0.19043c-0.40576,-0.00732 -1.00635,-1.23926 -1.22607,-1.63916c-1.37109,-2.34961 -2.71143,-4.83838 -4.21875,-7.06934c0.00879,0.01318 -0.42187,-0.19189 -0.45557,-0.20801c0.00879,-0.479 0.03076,-0.51562 -0.10254,-0.9917c-0.55371,-0.52588 -3.35742,-0.27979 -4.26855,-0.25635c-0.03369,1.69629 0.2168,8.64258 -0.20361,9.78516c-0.854,0.31348 -4.97754,0.44824 -6.02051,0.40137c-0.2373,-2.16064 -0.03223,-5.84473 -0.07471,-8.146c-0.12305,-6.89062 0.20947,-14.21777 -0.07617,-21.08203c1.81934,-0.00439 4.30518,0.05566 6.06738,-0.07471z" fill="#df1624"/><path d="M228.91406,178.29492c2.45947,-0.12598 5.5752,-0.04248 7.65527,1.34912c1.29053,2.45654 1.53809,4.8208 -0.99902,6.52881c-1.77832,0.72949 -5.56055,0.53467 -7.83105,0.71777c-0.10693,-1.00195 -0.17725,-7.35059 -0.02051,-8.06836c0.33984,-0.35889 0.65039,-0.35449 1.19531,-0.52734z" fill="#ffffff"/><path d="M109.98398,181.5498c4.51479,-0.41602 9.85913,0.61816 10.76133,6.02637c0.16318,1.84424 0.19658,3.86426 0.173,5.72314c-0.03325,2.61768 0.59341,6.2124 0.28945,8.69824l-0.14839,0.04834l-0.21138,-0.3457c-1.10493,-0.44971 -2.94067,0.3999 -3.86528,0.5376c-0.36182,0.0542 -1.29565,-1.5498 -1.47363,-2.10937c-1.31968,0.41895 -2.30229,2.06396 -5.10747,2.40674c-2.49229,0.31787 -5.00845,-0.37207 -6.98965,-1.91748c-1.6125,-1.48096 -2.27725,-3.11572 -1.86694,-5.2749c1.28306,-6.75293 8.8541,-6.05859 13.66978,-5.30273c-0.05171,-0.58887 -0.10928,-1.36084 -0.3208,-1.9043c-0.29839,-0.75293 -0.88623,-1.35645 -1.63198,-1.67285c-2.7791,-1.1792 -5.99443,0.5874 -8.39268,1.47363c-0.65479,-1.14258 -1.69233,-2.90918 -2.62441,-3.78809c2.1791,-1.67285 5.07026,-2.26465 7.73906,-2.59863z" fill="#002756"/><path d="M110.09722,193.26855c4.57749,-0.87744 7.44302,2.21484 2.60801,4.74023c-1.50073,0.47607 -2.41978,0.41162 -3.8896,0.10693c-1.34019,-1.14697 -1.79487,-2.58545 -0.58916,-4.09277c0.57803,-0.72363 0.95508,-0.68115 1.87075,-0.75439z" fill="#ffffff"/><path d="M164.88721,181.40332c7.17041,-0.37061 12.23438,5.42285 10.69775,12.38086c-4.99512,0.07178 -10.06055,-0.06152 -15.03955,0.05859c1.29932,3.58008 3.52588,4.38428 7.16748,3.92725c1.54395,-0.19482 2.82129,-1.08105 4.10303,-1.8999c0.32813,0.41162 0.7749,0.86719 1.13965,1.2583l1.97168,2.05518c-4.04004,4.14697 -12.05859,4.51465 -16.60986,0.94482c-4.48535,-3.51855 -4.84424,-10.71973 -1.29346,-15.03076c2.09766,-2.54736 4.64502,-3.42334 7.86328,-3.69434z" fill="#002756"/><path d="M164.62207,185.80078c3.18604,-0.03076 4.37988,0.93896 5.54004,3.84668c-1.4502,0.24902 -2.77148,0.20068 -4.23193,0.19775c-1.18799,0.01758 -2.39209,0.0498 -3.58008,0.02051c-0.79102,-0.01904 -1.52051,0.01172 -1.75488,-0.84229c0.3501,-1.51025 2.50195,-3.02197 4.02686,-3.22266z" fill="#ffffff"/><path d="M204.62549,181.55273c13.57471,-1.35791 10.19678,9.46875 11.10059,18.48926c0.05127,0.50537 0.13916,1.62012 -0.01611,2.00977l-0.18018,0.00879c0.08057,-0.45703 0.14209,-0.44238 0.01025,-0.82471l-0.52881,0.43652c-1.03857,0.23877 -3.83057,0.28564 -4.72852,-0.26514c-0.14355,-0.48193 -0.1333,-0.89795 -0.15674,-1.40039c-3.31641,2.97217 -9.01611,3.63428 -12.31787,0.36035c-0.31641,-0.39551 -0.6167,-0.7749 -0.87012,-1.21436c-0.7998,-1.38135 -1.01074,-3.02637 -0.5874,-4.56445c1.57471,-5.61182 8.98389,-5.62793 13.50293,-4.28174c-0.46729,-4.90869 -3.20068,-4.86182 -7.33301,-3.65918c-0.89795,0.26221 -1.9248,1.01074 -2.8418,1.06348c-0.25928,-0.15967 -2.12549,-2.96191 -2.49902,-3.45264c2.13135,-1.69043 4.78418,-2.43164 7.4458,-2.70557z" fill="#002756"/><path d="M204.5127,193.24365c1.34473,-0.08496 3.84668,-0.38818 4.74756,0.74561c0.51855,0.65332 0.2666,1.53809 0.15527,2.30127c-0.63721,0.93604 -0.93604,1.26709 -2.00244,1.72119c-1.21875,0.22705 -2.20166,0.18457 -3.43066,0.15234c-0.83789,-0.51709 -0.9668,-0.60498 -1.65967,-1.32861l-0.0498,-1.88525c0.8042,-1.03271 1.01514,-1.25244 2.23975,-1.70654z" fill="#ffffff"/><path d="M77.91416,172.80322c3.5042,0.7207 8.91899,0.34424 12.60352,0.30029c4.29199,-0.05273 8.76577,-0.00879 13.03506,-0.14209c0.15234,1.66406 0.11265,4.18359 0.07441,5.86523c-3.19893,0.05273 -6.33472,-0.08203 -9.57495,0.03516c-0.33706,3.78223 -0.13726,10.81348 -0.14194,14.75391c-0.02329,2.24414 -0.00366,4.41797 0.20947,6.65625c0.0605,0.63721 0.05156,1.58643 -0.525,1.95996c-2.30054,-1.37988 -5.02427,0.81445 -6.19775,-0.4541c0.44341,-0.55518 0.32959,-4.79297 0.33296,-5.84619l-0.06592,-17.10498c-1.42559,-0.02637 -9.03062,0.22266 -9.77754,-0.26807c0.12642,-2.01855 0.21694,-3.72363 0.02769,-5.75537z" fill="#002756"/><path d="M31.46265,173.0083c1.91162,-0.23145 4.81143,0.15234 6.84287,0.07617c6.09873,-0.22998 12.12261,0.21973 18.23071,0.00146c0.15234,0.0791 0.58711,0.28711 0.63501,0.41016c0.34775,0.89502 0.14531,4.34473 0.13198,5.31738c-3.07983,0.00439 -6.88447,0.15527 -9.85283,-0.35156c-0.17256,4.07373 -0.06431,8.96631 -0.08101,13.10303c-0.00645,3.41162 0.00454,6.82324 0.03252,10.2334c-1.46001,-0.03955 -4.97168,0.25488 -5.99121,-0.35303c-0.3895,-1.07666 -0.1812,-7.76807 -0.20112,-9.32227c-0.05698,-4.46045 0.03369,-8.80664 -0.20991,-13.28906h-9.86118c0.5061,-1.81055 0.34702,-3.92285 0.32417,-5.82568z" fill="#002756"/><path d="M62.64639,181.63037c-0.39331,4.20557 -0.59546,7.59082 -0.18794,11.90332c-0.03662,3.17432 2.09033,4.28613 5.19229,3.87598c5.4895,-0.72656 3.2877,-8.84912 3.64014,-12.65186c0.08701,-0.9375 -0.44062,-2.13281 0.19585,-3.02051c0.76289,-0.20947 4.71577,-0.10254 5.73457,-0.09521c0.05127,2.74219 -0.00864,5.66602 -0.01611,8.42139c-0.00205,1.56738 0.18442,11.34082 -0.23584,11.94873l-0.34746,-0.42773c-1.17319,0.19775 -2.20269,-0.01904 -3.39316,0.375c-0.52896,0.17578 -0.66753,-0.07471 -1.09951,-0.39258l-0.19526,0.06006l0.16553,0.50977l-0.23408,0.18311c-0.39287,-0.41162 -0.25313,-2.02441 -0.23921,-2.64844c-2.08447,1.49414 -3.90366,2.87988 -6.5918,2.87988c-2.28223,0 -4.68281,-0.47168 -6.34761,-2.14014c-0.83159,-0.84375 -1.42383,-1.89404 -1.7165,-3.04248c-0.56821,-2.18848 -0.38437,-7.74609 -0.44385,-10.19238c-0.0438,-1.79883 -0.17168,-3.70459 -0.14062,-5.50342z" fill="#002756"/><path d="M181.51904,175.94531c1.65967,-0.13184 4.52344,-0.13184 6.16699,0.00879c-0.13916,1.09131 -0.54199,4.54541 -0.10986,5.41113c0.65039,0.56104 4.43848,0.29443 5.66016,0.2915c0.0249,1.72266 0.06299,3.34863 -0.02637,5.07129c-1.79443,0.05566 -3.75879,0.03076 -5.56641,0.04541c0.00732,2.67334 -0.09521,6.61523 0.15088,9.20361c0.42627,0.67822 0.65625,0.90381 1.18945,1.48242c1.93213,0.04395 2.38623,0.01465 4.22607,-0.53613c0.41016,1.19678 0.54785,2.27344 0.67676,3.52148c0.04541,0.61523 0.12158,0.46436 -0.12158,0.94629c-2.34521,1.66553 -7.86914,1.44287 -10.04736,-0.51416c-2.31299,-2.07861 -1.88379,-4.6626 -1.91895,-7.44434c-0.0293,-2.25732 0.08057,-4.50146 -0.06592,-6.73535l-4.03125,0.07324c-0.05273,-1.6875 -0.02637,-3.33984 -0.00879,-5.02734c1.12354,-0.12451 2.81104,-0.10254 3.98145,-0.12012c-0.17285,-2.06689 -0.2168,-3.62988 -0.15527,-5.67773z" fill="#002756"/><path d="M144.64629,181.69189c1.91719,-0.06152 4.0251,-0.03223 5.95723,-0.04395c-0.29297,5.2002 -0.04248,10.45605 -0.14062,15.68115c-0.05713,3.04395 0.479,7.34033 -0.92432,10.12207c-1.03857,2.05664 -2.8374,2.72168 -4.9314,3.29443c-5.37612,0.61963 -5.05854,0.16406 -4.98882,-5.1167c2.08813,0.41162 4.40391,0.8042 4.81362,-1.96875c0.46333,-1.73584 -0.052,-4.90283 0.16831,-6.47754c0.29575,-2.1167 -0.47212,-14.37744 0.046,-15.49072z" fill="#002756"/><path d="M140.34448,97.7666c3.90439,-0.77505 7.64429,-1.71343 11.52026,-2.53564l24.82178,-5.18115c1.14111,4.07622 1.9541,8.22407 2.83887,12.35713c0.09229,0.43037 0.48486,1.81348 0.83203,2.02207l0.08789,-0.42583c-0.15967,-0.23584 -0.31201,-0.45894 -0.41016,-0.72729l0.07617,-0.19746c0.43945,0.25137 0.77344,0.79688 0.85254,1.29214c-0.54199,0.57451 -4.75488,0.63823 -5.89746,0.7957c-1.15723,0.16714 -2.30273,0.40635 -3.43066,0.71616c-0.49219,-3.31333 -1.16016,-6.58916 -4.06055,-8.72666c-1.23779,-0.90483 -2.69678,-1.46045 -4.22168,-1.60825c-2.86523,-0.3041 -7.89697,0.51196 -10.87793,0.92593l-11.31958,1.60137c-0.40356,-0.04512 -0.44604,-0.10972 -0.81152,-0.3082z" fill="#df1624"/><path d="M131.92676,181.24072c0.55898,0.59912 0.40693,2.57373 0.41499,3.48633c0.37954,-0.35303 0.76304,-0.70166 1.15034,-1.0459c2.47412,-2.18555 4.12295,-2.42725 7.26489,-2.2251c-0.16846,1.15576 -0.1667,5.58398 -0.51416,5.97656c-0.72876,0.2124 -2.06265,-0.03223 -2.88237,0.01318c-5.29966,0.2959 -4.50864,5.28809 -4.4436,9.08496c0.01919,1.86621 0.09126,3.9082 -0.06548,5.75537c-1.36318,-0.28857 -1.70684,-0.37939 -3.05244,-0.42627c-1.07183,-0.03809 -2.32778,0.52148 -2.88149,0.35889c-0.14399,-0.68555 0.03545,-2.21484 0.0813,-3.01758c0.32725,-5.74365 -0.4998,-11.82715 -0.28696,-17.50928c1.54863,-0.08789 3.98408,0.20215 5.21499,-0.45117z" fill="#002756"/><path d="M76.98574,116.48408l1.73218,-0.12949c2.55835,1.40347 3.08452,1.74434 5.93364,1.04604l0.17944,0.1585c0.39741,1.4811 0.17241,3.27964 0.32593,5.27358c0.1708,2.22041 1.20879,5.75801 0.81211,7.98018c-0.03208,0.18018 -0.27026,0.21782 -0.44546,0.28667c-0.55283,-0.11821 -0.63384,-0.26572 -1.03184,-0.6627c-0.36841,-0.41396 -1.02319,-1.16909 -1.44111,-1.49077c-0.86836,-0.66826 -2.10571,-1.20645 -2.88281,-1.96582c-0.05479,-0.57935 0.26104,-0.78604 0.55649,-1.52168c-0.03486,-1.11006 -5.15508,-5.87549 -6.10283,-6.82471c-0.3186,-1.10684 1.51333,-1.91118 2.36426,-2.1498z" fill="#e1e1e0"/><path d="M146.94873,171.91846c1.12354,-0.14648 2.25586,0.2168 3.0835,0.9917c0.82764,0.7749 1.26563,1.87939 1.19238,3.01172c-0.11279,1.771 -1.43848,3.22559 -3.19043,3.50391c-1.73613,0.27539 -3.43345,-0.67822 -4.102,-2.3042c-0.4481,-1.08838 -0.36445,-2.32471 0.22632,-3.34424c0.59077,-1.01953 1.62173,-1.70654 2.79023,-1.85889z" fill="#002756"/><path d="M218.48291,134.12944c1.31836,1.12266 6.37354,0.87012 6.78955,2.7999c-0.15234,0.50273 -0.26807,0.55488 -0.65479,0.89971c-1.14844,0.1894 -2.23389,0.00381 -3.35742,-0.25737c-1.7168,-0.39844 -4.89404,-1.23633 -2.77734,-3.44224z" fill="#e1e1e0"/><path d="M138.61304,98.31108c-0.075,-0.0397 -0.16816,-0.02417 -0.25283,-0.03047c-0.06299,0.33428 -0.01494,0.46113 -0.27627,0.66724c-0.86748,0.68423 -4.86855,1.55771 -5.76167,1.36948l0.03677,-0.15366l0.87495,-0.38042c0.19585,-0.48047 0.33223,-0.69126 0.26455,-1.22725c0.8502,-0.45615 4.38853,-0.55049 5.46431,-0.52852z" fill="#e1e1e0"/><path d="M138.96284,98.02749l1.38164,-0.26089c0.36548,0.19849 0.40796,0.26309 0.81152,0.3082c-0.84624,0.0936 -1.69395,0.17241 -2.54297,0.23628z" fill="#dd3833"/></g></svg></svg>