<svg width="196" height="44" viewBox="0 0 196 44" fill="none" xmlns="http://www.w3.org/2000/svg">
  <rect width="44" height="44" rx="16" fill="#11111B"/>
  <path d="M12 15.5C12 13.0147 14.0147 11 16.5 11H31.5C33.9853 11 36 13.0147 36 15.5V17.5C36 19.9853 33.9853 22 31.5 22H18.5C17.1193 22 16 23.1193 16 24.5V28.5C16 29.8807 17.1193 31 18.5 31H32" stroke="#A78BFA" stroke-width="3" stroke-linecap="round"/>
  <circle cx="28" cy="29" r="4" fill="#7C3AED"/>
  <path d="M58 16.6H68.3V19.9H64.7V32H61.6V19.9H58V16.6ZM72.2359 32.25C71.0759 32.25 70.0959 32.01 69.2959 31.53C68.5159 31.03 67.9259 30.35 67.5259 29.49C67.1259 28.63 66.9259 27.64 66.9259 26.52C66.9259 25.42 67.1159 24.44 67.4959 23.58C67.8959 22.7 68.4559 22.01 69.1759 21.51C69.9159 21.01 70.7859 20.76 71.7859 20.76C72.7659 20.76 73.6159 20.98 74.3359 21.42C75.0559 21.84 75.6159 22.45 76.0159 23.25C76.4359 24.05 76.6459 25.01 76.6459 26.13V27.15H70.0259C70.1059 27.99 70.3959 28.63 70.8959 29.07C71.4159 29.49 72.0859 29.7 72.9059 29.7C73.5659 29.7 74.1559 29.61 74.6759 29.43C75.1959 29.25 75.7159 28.98 76.2359 28.62V31.02C75.7559 31.38 75.2359 31.65 74.6759 31.83C74.1159 32.11 73.3026 32.25 72.2359 32.25ZM70.0259 25.2H73.8159C73.8159 24.5 73.6359 23.95 73.2759 23.55C72.9359 23.13 72.4459 22.92 71.8059 22.92C71.1459 22.92 70.6259 23.13 70.2459 23.55C69.8859 23.95 69.6459 24.5 69.5259 25.2H70.0259ZM81.3736 32.25C80.3336 32.25 79.4136 32 78.6136 31.5C77.8336 31 77.2236 30.31 76.7836 29.43C76.3636 28.55 76.1536 27.54 76.1536 26.4C76.1536 25.24 76.3736 24.22 76.8136 23.34C77.2736 22.44 77.9036 21.74 78.7036 21.24C79.5036 20.72 80.4336 20.46 81.4936 20.46C82.3336 20.46 83.0036 20.57 83.5036 20.79C84.0236 20.99 84.4636 21.26 84.8236 21.6V24.27C84.4236 23.93 83.9936 23.67 83.5336 23.49C83.0936 23.31 82.6036 23.22 82.0636 23.22C81.5236 23.22 81.0336 23.35 80.5936 23.61C80.1736 23.87 79.8336 24.25 79.5736 24.75C79.3336 25.23 79.2136 25.81 79.2136 26.49C79.2136 27.17 79.3336 27.76 79.5736 28.26C79.8336 28.76 80.1836 29.15 80.6236 29.43C81.0836 29.69 81.6036 29.82 82.1836 29.82C82.7036 29.82 83.1836 29.74 83.6236 29.58C84.0836 29.4 84.5236 29.13 84.9436 28.77V31.38C84.5636 31.66 84.0936 31.88 83.5336 32.04C82.9736 32.18 82.2536 32.25 81.3736 32.25ZM86.2251 16H89.2551V22.32C89.6151 21.82 90.0851 21.44 90.6651 21.18C91.2451 20.9 91.8651 20.76 92.5251 20.76C93.6251 20.76 94.4751 21.09 95.0751 21.75C95.6951 22.41 96.0051 23.42 96.0051 24.78V32H92.9751V25.59C92.9751 24.85 92.8351 24.31 92.5551 23.97C92.2951 23.63 91.8851 23.46 91.3251 23.46C90.9051 23.46 90.5151 23.57 90.1551 23.79C89.8151 23.99 89.5151 24.28 89.2551 24.66V32H86.2251V16ZM101.446 32.25C100.446 32.25 99.5762 32 98.8362 31.5C98.1162 31 97.5562 30.31 97.1562 29.43C96.7562 28.53 96.5562 27.51 96.5562 26.37C96.5562 25.21 96.7662 24.19 97.1862 23.31C97.6062 22.43 98.1762 21.74 98.8962 21.24C99.6362 20.72 100.466 20.46 101.386 20.46C102.106 20.46 102.736 20.59 103.276 20.85C103.816 21.09 104.266 21.44 104.626 21.9V20.7H107.656V32H104.626V30.8C104.286 31.24 103.846 31.59 103.306 31.85C102.766 32.11 102.146 32.25 101.446 32.25ZM102.226 29.64C102.746 29.64 103.216 29.52 103.636 29.28C104.056 29.02 104.386 28.66 104.626 28.2V24.54C104.386 24.08 104.056 23.73 103.636 23.49C103.236 23.23 102.776 23.1 102.256 23.1C101.736 23.1 101.266 23.23 100.846 23.49C100.426 23.75 100.096 24.12 99.8562 24.6C99.6362 25.08 99.5262 25.66 99.5262 26.34C99.5262 27.02 99.6362 27.61 99.8562 28.11C100.096 28.59 100.426 28.96 100.846 29.22C101.286 29.5 101.746 29.64 102.226 29.64ZM110.062 20.7H113.092V21.9C113.452 21.42 113.922 21.05 114.502 20.79C115.082 20.51 115.702 20.37 116.362 20.37C117.462 20.37 118.312 20.7 118.912 21.36C119.532 22.02 119.842 23.03 119.842 24.39V32H116.812V25.59C116.812 24.85 116.672 24.31 116.392 23.97C116.132 23.63 115.722 23.46 115.162 23.46C114.742 23.46 114.352 23.57 113.992 23.79C113.652 23.99 113.352 24.28 113.092 24.66V32H110.062V20.7ZM125.931 36.5C124.891 36.5 123.921 36.38 123.021 36.14C122.121 35.92 121.361 35.59 120.741 35.15V32.54C121.481 33.02 122.261 33.38 123.081 33.62C123.901 33.86 124.701 33.98 125.481 33.98C126.521 33.98 127.291 33.76 127.791 33.32C128.291 32.88 128.541 32.23 128.541 31.37V30.59C128.161 31.03 127.711 31.37 127.191 31.61C126.671 31.83 126.081 31.94 125.421 31.94C124.421 31.94 123.541 31.71 122.781 31.25C122.021 30.77 121.431 30.11 121.011 29.27C120.611 28.43 120.411 27.46 120.411 26.36C120.411 25.22 120.621 24.22 121.041 23.36C121.481 22.48 122.081 21.8 122.841 21.32C123.621 20.82 124.511 20.57 125.511 20.57C126.191 20.57 126.811 20.69 127.371 20.93C127.951 21.15 128.441 21.49 128.841 21.95V20.7H131.571V31.1C131.571 32.86 131.091 34.2 130.131 35.12C129.191 36.04 127.791 36.5 125.931 36.5ZM126.171 29.4C126.691 29.4 127.161 29.29 127.581 29.07C128.001 28.85 128.321 28.53 128.541 28.11V24.45C128.301 24.03 127.971 23.71 127.551 23.49C127.131 23.27 126.661 23.16 126.141 23.16C125.621 23.16 125.151 23.28 124.731 23.52C124.331 23.74 124.011 24.08 123.771 24.54C123.531 24.98 123.411 25.52 123.411 26.16C123.411 26.8 123.531 27.35 123.771 27.81C124.011 28.27 124.341 28.63 124.761 28.89C125.181 29.23 125.651 29.4 126.171 29.4ZM137.741 32.25C136.581 32.25 135.601 32.01 134.801 31.53C134.021 31.03 133.431 30.35 133.031 29.49C132.631 28.63 132.431 27.64 132.431 26.52C132.431 25.42 132.621 24.44 133.001 23.58C133.401 22.7 133.961 22.01 134.681 21.51C135.421 21.01 136.291 20.76 137.291 20.76C138.271 20.76 139.121 20.98 139.841 21.42C140.561 21.84 141.121 22.45 141.521 23.25C141.941 24.05 142.151 25.01 142.151 26.13V27.15H135.531C135.611 27.99 135.901 28.63 136.401 29.07C136.921 29.49 137.591 29.7 138.411 29.7C139.071 29.7 139.661 29.61 140.181 29.43C140.701 29.25 141.221 28.98 141.741 28.62V31.02C141.261 31.38 140.741 31.65 140.181 31.83C139.621 32.11 138.808 32.25 137.741 32.25Z" fill="#F8F7FF"/>
</svg>
